<svg width="79" height="40" viewBox="0 0 79 40" fill="none" xmlns="http://www.w3.org/2000/svg">
<g clip-path="url(#clip0_20_434)">
<path fill-rule="evenodd" clip-rule="evenodd" d="M63.7369 17.7478C64.0345 18.2614 64.1319 18.8457 64.1641 19.5026L64.2063 20.3781V26.5006L64.2495 27.377C64.3359 28.8084 65.3915 29.8668 66.8339 29.9568L67.7058 30V20.3781L67.749 19.5026C67.7848 18.853 67.8813 18.2577 68.1835 17.7404C68.4915 17.2099 68.9337 16.7697 69.4656 16.4641C69.9975 16.1585 70.6005 15.9982 71.2139 15.9993C71.8274 16.0005 72.4298 16.1629 72.9606 16.4705C73.4914 16.778 73.9319 17.2198 74.238 17.7515C74.5357 18.265 74.6284 18.8604 74.6643 19.5026L74.7075 20.3754V26.5006L74.7506 27.377C74.8407 28.8158 75.888 29.8741 77.335 29.9568L78.2069 30V19.5026C78.2069 17.6463 77.4697 15.8661 76.1574 14.5533C74.8451 13.2405 73.0652 12.5026 71.2089 12.5018C70.2154 12.5008 69.2331 12.7118 68.3277 13.1207C67.4222 13.5296 66.6145 14.127 65.9584 14.8731C65.302 14.1273 64.4942 13.53 63.5888 13.121C62.6834 12.712 61.7013 12.5006 60.7078 12.5009C59.2544 12.5009 57.9057 12.9419 56.7885 13.7035C56.1068 12.9428 54.5817 12.5009 53.7062 12.5009V30L54.5817 29.9568C56.0462 29.8604 57.1046 28.8305 57.1615 27.377L57.2084 26.5006V20.3781L57.2516 19.5026C57.2883 18.842 57.3802 18.2614 57.6788 17.7441C57.987 17.2139 58.429 16.7739 58.9605 16.4679C59.492 16.1619 60.0945 16.0007 60.7078 16.0004C61.3216 16.0005 61.9245 16.162 62.4562 16.4687C62.9878 16.7754 63.4295 17.2165 63.7369 17.7478ZM3.83282 29.9577L4.70837 30H17.8325L17.7893 29.1272C17.6708 27.6885 16.6519 26.6374 15.2086 26.5437L14.333 26.5006H6.45948L16.9569 15.9995L16.9137 15.1276C16.8457 13.6741 15.7837 12.624 14.333 12.5441L13.4575 12.5046L0.333374 12.5009L0.376554 13.3765C0.491396 14.8014 1.52497 15.8745 2.95635 15.9572L3.83282 16.0004H11.7064L1.20893 26.5015L1.25211 27.377C1.33847 28.8194 2.37939 29.864 3.83282 29.9568V29.9577ZM50.271 15.0623C51.0837 15.8748 51.7283 16.8394 52.1681 17.901C52.6079 18.9626 52.8342 20.1004 52.8342 21.2495C52.8342 22.3986 52.6079 23.5365 52.1681 24.5981C51.7283 25.6597 51.0837 26.6243 50.271 27.4367C48.6293 29.0772 46.4033 29.9987 44.0825 29.9987C41.7616 29.9987 39.5357 29.0772 37.8939 27.4367C34.4771 24.02 34.4771 18.4791 37.8939 15.0623C38.7058 14.2502 39.6697 13.6059 40.7306 13.1662C41.7915 12.7266 42.9286 12.5002 44.0769 12.5C45.2272 12.4992 46.3663 12.7252 47.4292 13.165C48.492 13.6048 49.4577 14.2499 50.271 15.0633V15.0623ZM47.7951 17.5402C48.7792 18.5251 49.332 19.8604 49.332 21.2528C49.332 22.6451 48.7792 23.9805 47.7951 24.9654C46.8102 25.9495 45.4748 26.5023 44.0825 26.5023C42.6901 26.5023 41.3548 25.9495 40.3699 24.9654C39.3857 23.9805 38.8329 22.6451 38.8329 21.2528C38.8329 19.8604 39.3857 18.5251 40.3699 17.5402C41.3548 16.556 42.6901 16.0032 44.0825 16.0032C45.4748 16.0032 46.8102 16.556 47.7951 17.5402ZM25.7133 12.5C26.8618 12.5003 27.9989 12.7268 29.0598 13.1666C30.1207 13.6064 31.0846 14.2509 31.8964 15.0633C35.3141 18.4791 35.3141 24.0209 31.8964 27.4367C30.2546 29.0772 28.0287 29.9987 25.7078 29.9987C23.3869 29.9987 21.161 29.0772 19.5192 27.4367C16.1025 24.02 16.1025 18.4791 19.5192 15.0623C20.3311 14.2502 21.295 13.6059 22.3559 13.1662C23.4168 12.7266 24.5539 12.5002 25.7023 12.5H25.7133ZM29.4204 17.5383C30.4049 18.5233 30.9579 19.8588 30.9579 21.2514C30.9579 22.6439 30.4049 23.9795 29.4204 24.9644C28.4355 25.9486 27.1002 26.5014 25.7078 26.5014C24.3155 26.5014 22.9801 25.9486 21.9952 24.9644C21.0111 23.9795 20.4582 22.6442 20.4582 21.2518C20.4582 19.8595 21.0111 18.5241 21.9952 17.5392C22.9801 16.5551 24.3155 16.0023 25.7078 16.0023C27.1002 16.0023 28.4355 16.5551 29.4204 17.5392V17.5383Z" fill="#2D8CFF"/>
</g>
<defs>
<clipPath id="clip0_20_434">
<rect width="78.3333" height="40" fill="white" transform="translate(0.333374)"/>
</clipPath>
</defs>
</svg>
