<svg width="1440" height="408" viewBox="0 0 1440 408" fill="none" xmlns="http://www.w3.org/2000/svg">
<rect width="2085.48" height="184" transform="translate(-403.839 225.044) rotate(-6.19486)" fill="url(#paint0_linear_5_1391)"/>
<path d="M-381.181 364.413L-385.158 364.845L-384.726 368.822L-380.75 368.39L-381.181 364.413ZM-391.855 266.082L-392.286 262.105L-396.263 262.537L-395.831 266.513L-391.855 266.082ZM-368.088 263.502L-364.111 263.07L-364.543 259.094L-368.52 259.525L-368.088 263.502ZM-359.51 342.532L-363.486 342.964L-363.055 346.94L-359.078 346.509L-359.51 342.532ZM-318.602 338.092L-314.626 337.66L-315.057 333.684L-319.034 334.115L-318.602 338.092ZM-316.507 357.393L-316.076 361.37L-312.099 360.938L-312.531 356.962L-316.507 357.393ZM-377.205 363.982L-387.878 265.65L-395.831 266.513L-385.158 364.845L-377.205 363.982ZM-391.423 270.058L-367.656 267.479L-368.52 259.525L-392.286 262.105L-391.423 270.058ZM-372.065 263.934L-363.486 342.964L-355.533 342.101L-364.111 263.07L-372.065 263.934ZM-359.078 346.509L-318.171 342.069L-319.034 334.115L-359.941 338.556L-359.078 346.509ZM-322.579 338.524L-320.484 357.825L-312.531 356.962L-314.626 337.66L-322.579 338.524ZM-316.939 353.417L-381.613 360.437L-380.75 368.39L-316.076 361.37L-316.939 353.417ZM-295.167 255.587L-291.19 255.155L-291.622 251.179L-295.598 251.61L-295.167 255.587ZM-284.493 353.918L-284.062 357.895L-280.085 357.463L-280.517 353.487L-284.493 353.918ZM-308.26 356.498L-312.237 356.93L-311.805 360.906L-307.828 360.475L-308.26 356.498ZM-318.933 258.167L-319.365 254.19L-323.342 254.622L-322.91 258.598L-318.933 258.167ZM-299.143 256.018L-288.47 354.35L-280.517 353.487L-291.19 255.155L-299.143 256.018ZM-284.925 349.942L-308.692 352.521L-307.828 360.475L-284.062 357.895L-284.925 349.942ZM-304.283 356.066L-314.957 257.735L-322.91 258.598L-312.237 356.93L-304.283 356.066ZM-318.502 262.143L-294.735 259.563L-295.598 251.61L-319.365 254.19L-318.502 262.143ZM-261.976 251.984L-258.299 250.41L-259.464 247.688L-262.408 248.008L-261.976 251.984ZM-232.169 321.617L-235.846 323.192L-234.681 325.914L-231.737 325.594L-232.169 321.617ZM-231.353 321.529L-230.921 325.506L-227.977 325.186L-227.423 322.277L-231.353 321.529ZM-217.18 247.122L-217.612 243.145L-220.555 243.465L-221.109 246.373L-217.18 247.122ZM-190.58 244.235L-186.675 245.097L-185.474 239.657L-191.012 240.258L-190.58 244.235ZM-213.084 346.167L-212.653 350.144L-209.798 349.834L-209.179 347.03L-213.084 346.167ZM-244.725 349.602L-248.355 351.282L-247.149 353.888L-244.294 353.578L-244.725 349.602ZM-288.576 254.871L-289.008 250.895L-294.546 251.496L-292.206 256.552L-288.576 254.871ZM-265.654 253.558L-235.846 323.192L-228.492 320.043L-258.299 250.41L-265.654 253.558ZM-231.737 325.594L-230.921 325.506L-231.784 317.552L-232.601 317.641L-231.737 325.594ZM-227.423 322.277L-213.251 247.87L-221.109 246.373L-235.282 320.78L-227.423 322.277ZM-216.748 251.098L-190.149 248.211L-191.012 240.258L-217.612 243.145L-216.748 251.098ZM-194.486 243.372L-216.99 345.305L-209.179 347.03L-186.675 245.097L-194.486 243.372ZM-213.516 342.191L-245.157 345.625L-244.294 353.578L-212.653 350.144L-213.516 342.191ZM-241.095 347.921L-284.946 253.191L-292.206 256.552L-248.355 351.282L-241.095 347.921ZM-288.144 258.848L-261.545 255.961L-262.408 248.008L-289.008 250.895L-288.144 258.848ZM-173.376 341.857L-177.353 342.289L-176.921 346.266L-172.945 345.834L-173.376 341.857ZM-184.05 243.526L-184.481 239.549L-188.458 239.981L-188.026 243.957L-184.05 243.526ZM-115.487 236.084L-111.51 235.652L-111.942 231.675L-115.918 232.107L-115.487 236.084ZM-113.391 255.385L-112.96 259.362L-108.983 258.93L-109.415 254.953L-113.391 255.385ZM-158.188 260.247L-158.62 256.271L-162.596 256.702L-162.165 260.679L-158.188 260.247ZM-155.999 280.413L-159.976 280.845L-159.544 284.821L-155.567 284.39L-155.999 280.413ZM-114.708 275.931L-110.731 275.499L-111.163 271.523L-115.139 271.954L-114.708 275.931ZM-112.607 295.281L-112.176 299.257L-108.199 298.826L-108.631 294.849L-112.607 295.281ZM-153.899 299.762L-154.331 295.786L-158.307 296.217L-157.876 300.194L-153.899 299.762ZM-151.705 319.976L-155.681 320.408L-155.25 324.384L-151.273 323.953L-151.705 319.976ZM-106.908 315.114L-102.932 314.682L-103.363 310.705L-107.34 311.137L-106.908 315.114ZM-104.813 334.415L-104.382 338.392L-100.405 337.96L-100.837 333.984L-104.813 334.415ZM-169.4 341.426L-180.073 243.094L-188.026 243.957L-177.353 342.289L-169.4 341.426ZM-183.618 247.502L-115.055 240.06L-115.918 232.107L-184.481 239.549L-183.618 247.502ZM-119.463 236.515L-117.368 255.817L-109.415 254.953L-111.51 235.652L-119.463 236.515ZM-113.823 251.408L-158.62 256.271L-157.756 264.224L-112.96 259.362L-113.823 251.408ZM-162.165 260.679L-159.976 280.845L-152.022 279.981L-154.211 259.816L-162.165 260.679ZM-155.567 284.39L-114.276 279.908L-115.139 271.954L-156.431 276.436L-155.567 284.39ZM-118.684 276.363L-116.584 295.712L-108.631 294.849L-110.731 275.499L-118.684 276.363ZM-113.039 291.304L-154.331 295.786L-153.467 303.739L-112.176 299.257L-113.039 291.304ZM-157.876 300.194L-155.681 320.408L-147.728 319.544L-149.922 299.331L-157.876 300.194ZM-151.273 323.953L-106.477 319.09L-107.34 311.137L-152.136 315.999L-151.273 323.953ZM-110.885 315.545L-108.79 334.847L-100.837 333.984L-102.932 314.682L-110.885 315.545ZM-105.245 330.439L-173.808 337.881L-172.945 345.834L-104.382 338.392L-105.245 330.439ZM-47.7233 328.218L-47.2916 332.195L-44.3703 331.878L-43.7995 328.995L-47.7233 328.218ZM-73.2664 330.991L-77.1724 330.129L-78.3734 335.569L-72.8348 334.968L-73.2664 330.991ZM-50.7625 229.058L-51.1941 225.082L-54.0493 225.391L-54.6684 228.196L-50.7625 229.058ZM-19.1216 225.624L-15.4916 223.943L-16.6981 221.337L-19.5532 221.647L-19.1216 225.624ZM24.729 320.354L25.1606 324.331L30.6993 323.73L28.3589 318.674L24.729 320.354ZM-0.814154 323.127L-4.47889 324.73L-3.30201 327.42L-0.382513 327.103L-0.814154 323.127ZM-31.8928 252.077L-28.228 250.474L-29.4049 247.783L-32.3244 248.1L-31.8928 252.077ZM-32.661 252.16L-33.0926 248.184L-36.0139 248.501L-36.5848 251.383L-32.661 252.16ZM-55.3328 289.89L-55.7644 285.913L-59.7411 286.345L-59.3094 290.321L-55.3328 289.89ZM-1.94183 284.094L2.03482 283.663L1.60318 279.686L-2.37347 280.118L-1.94183 284.094ZM0.0177258 302.147L0.449367 306.124L4.42601 305.692L3.99437 301.716L0.0177258 302.147ZM-53.3732 307.943L-57.3499 308.374L-56.9182 312.351L-52.9416 311.919L-53.3732 307.943ZM-48.1549 324.242L-73.6981 327.014L-72.8348 334.968L-47.2916 332.195L-48.1549 324.242ZM-69.3605 331.853L-46.8565 229.921L-54.6684 228.196L-77.1724 330.129L-69.3605 331.853ZM-50.3308 233.035L-18.69 229.6L-19.5532 221.647L-51.1941 225.082L-50.3308 233.035ZM-22.7516 227.304L21.099 322.034L28.3589 318.674L-15.4916 223.943L-22.7516 227.304ZM24.2974 316.377L-1.2458 319.15L-0.382513 327.103L25.1606 324.331L24.2974 316.377ZM2.85058 321.524L-28.228 250.474L-35.5575 253.68L-4.47889 324.73L2.85058 321.524ZM-32.3244 248.1L-33.0926 248.184L-32.2293 256.137L-31.4611 256.053L-32.3244 248.1ZM-36.5848 251.383L-51.6471 327.441L-43.7995 328.995L-28.7372 252.937L-36.5848 251.383ZM-54.9011 293.866L-1.51019 288.071L-2.37347 280.118L-55.7644 285.913L-54.9011 293.866ZM-5.91847 284.526L-3.95892 302.579L3.99437 301.716L2.03482 283.663L-5.91847 284.526ZM-0.413915 298.171L-53.8049 303.966L-52.9416 311.919L0.449367 306.124L-0.413915 298.171ZM-49.3966 307.511L-51.3561 289.458L-59.3094 290.321L-57.3499 308.374L-49.3966 307.511ZM80.0751 214.857L79.6435 210.88L75.6668 211.312L76.0985 215.288L80.0751 214.857ZM103.794 212.282L107.77 211.85L107.339 207.874L103.362 208.305L103.794 212.282ZM107.524 295.433L111.1 297.226L111.105 297.216L107.524 295.433ZM94.2935 309.597L96.3807 313.009L96.3879 313.005L96.395 313.001L94.2935 309.597ZM50.6493 314.334L49.3271 318.11L49.335 318.112L49.3429 318.115L50.6493 314.334ZM34.7358 303.334L31.6107 305.831L31.6174 305.839L34.7358 303.334ZM20.5865 221.314L20.1548 217.337L16.1782 217.769L16.6098 221.745L20.5865 221.314ZM44.3531 218.734L48.3298 218.302L47.8981 214.326L43.9215 214.757L44.3531 218.734ZM54.2071 288.93L50.9382 291.235L50.9487 291.25L50.9594 291.265L54.2071 288.93ZM61.1744 294.489L62.7394 290.808L62.7394 290.808L61.1744 294.489ZM79.8516 292.462L77.5332 289.202L77.5248 289.208L77.5165 289.214L79.8516 292.462ZM80.5068 218.833L104.225 216.259L103.362 208.305L79.6435 210.88L80.5068 218.833ZM99.8171 212.714L106.702 276.139L114.655 275.276L107.77 211.85L99.8171 212.714ZM106.702 276.139C107.426 282.813 106.457 288.604 103.944 293.65L111.105 297.216C114.388 290.622 115.522 283.262 114.655 275.276L106.702 276.139ZM103.948 293.641C101.404 298.716 97.5282 302.899 92.1921 306.194L96.395 313.001C102.896 308.987 107.841 303.727 111.1 297.226L103.948 293.641ZM92.2064 306.185C86.877 309.445 80.3767 311.553 72.5913 312.399L73.4546 320.352C82.1858 319.404 89.8659 316.994 96.3807 313.009L92.2064 306.185ZM72.5913 312.399C64.7022 313.255 57.8544 312.592 51.9557 310.554L49.3429 318.115C56.567 320.611 64.6349 321.309 73.4546 320.352L72.5913 312.399ZM51.9716 310.559C46.0557 308.487 41.3939 305.235 37.8542 300.829L31.6174 305.839C36.166 311.501 42.1132 315.583 49.3271 318.11L51.9716 310.559ZM37.8609 300.837C34.3501 296.443 32.1728 290.989 31.4476 284.308L23.4943 285.171C24.3604 293.15 27.0264 300.093 31.6107 305.831L37.8609 300.837ZM31.4476 284.308L24.5631 220.882L16.6098 221.745L23.4943 285.171L31.4476 284.308ZM21.0181 225.29L44.7848 222.711L43.9215 214.757L20.1548 217.337L21.0181 225.29ZM40.3765 219.166L47.0369 280.527L54.9901 279.664L48.3298 218.302L40.3765 219.166ZM47.0369 280.527C47.4696 284.514 48.7423 288.121 50.9382 291.235L57.4761 286.625C56.1504 284.745 55.294 282.462 54.9901 279.664L47.0369 280.527ZM50.9594 291.265C53.1835 294.358 56.0903 296.674 59.6093 298.17L62.7394 290.808C60.5543 289.879 58.8163 288.488 57.4548 286.595L50.9594 291.265ZM59.6093 298.17C63.1815 299.689 67.0859 300.154 71.2136 299.706L70.3503 291.753C67.3719 292.076 64.8714 291.714 62.7394 290.808L59.6093 298.17ZM71.2136 299.706C75.3399 299.258 79.0465 297.967 82.1867 295.709L77.5165 289.214C75.6698 290.542 73.3299 291.429 70.3503 291.753L71.2136 299.706ZM82.17 295.721C85.2861 293.505 87.6283 290.62 89.1369 287.121L81.7908 283.953C80.8673 286.095 79.4681 287.826 77.5332 289.202L82.17 295.721ZM89.1369 287.121C90.656 283.598 91.1465 279.788 90.7122 275.786L82.7589 276.649C83.0611 279.434 82.7038 281.836 81.7908 283.953L89.1369 287.121ZM90.7122 275.786L84.0518 214.425L76.0985 215.288L82.7589 276.649L90.7122 275.786ZM207.758 237.043L208.189 241.02L212.574 240.544L211.673 236.226L207.758 237.043ZM183.751 239.649L179.863 240.589L180.689 244.005L184.183 243.626L183.751 239.649ZM181.058 233.189L177.694 235.353L177.694 235.353L181.058 233.189ZM176.569 228.527L178.839 225.234L178.839 225.234L176.569 228.527ZM170.41 225.94L169.511 229.838L169.545 229.846L169.578 229.853L170.41 225.94ZM150.98 230.43L148.395 227.377L148.388 227.382L148.382 227.388L150.98 230.43ZM144.157 241.42L140.324 240.278L140.32 240.289L140.317 240.301L144.157 241.42ZM147.728 273.872L144.229 275.811L144.238 275.826L144.246 275.842L147.728 273.872ZM156.729 282.951L154.898 286.507L154.917 286.517L154.937 286.527L156.729 282.951ZM176.281 283.161L174.695 279.489L174.687 279.492L174.679 279.495L176.281 283.161ZM181.676 279.612L184.47 282.474L184.477 282.467L181.676 279.612ZM185.242 274.415L181.581 272.804L181.576 272.814L181.572 272.824L185.242 274.415ZM186.805 267.785L186.397 263.806L183.036 264.15L182.814 267.522L186.805 267.785ZM210.827 265.323L214.827 265.272L214.771 260.898L210.42 261.344L210.827 265.323ZM208.431 278.602L204.681 277.21L204.677 277.221L204.673 277.233L208.431 278.602ZM201.093 291.106L204.141 293.696L204.147 293.689L204.153 293.682L201.093 291.106ZM188.641 300.814L186.793 297.266L186.786 297.27L188.641 300.814ZM146.471 302.573L144.9 306.252L144.91 306.256L144.92 306.26L146.471 302.573ZM127.993 287.188L131.286 284.917L127.993 287.188ZM122.122 232.202L118.428 230.667L118.428 230.667L122.122 232.202ZM176.84 205.519L176.007 209.431L176.018 209.434L176.029 209.436L176.84 205.519ZM190.97 211.272L188.772 214.615L188.78 214.62L188.789 214.625L190.97 211.272ZM207.326 233.066L183.319 235.672L184.183 243.626L208.189 241.02L207.326 233.066ZM187.639 238.709C186.959 235.896 185.899 233.319 184.422 231.024L177.694 235.353C178.633 236.812 179.368 238.542 179.863 240.589L187.639 238.709ZM184.422 231.024C182.937 228.716 181.073 226.774 178.839 225.234L174.298 231.82C175.635 232.742 176.764 233.908 177.694 235.353L184.422 231.024ZM178.839 225.234C176.581 223.676 174.029 222.62 171.241 222.028L169.578 229.853C171.432 230.247 172.986 230.915 174.298 231.82L178.839 225.234ZM171.308 222.043C168.521 221.4 165.575 221.276 162.507 221.609L163.37 229.562C165.68 229.311 167.715 229.424 169.511 229.838L171.308 222.043ZM162.507 221.609C157.061 222.2 152.292 224.078 148.395 227.377L153.564 233.483C156.074 231.358 159.278 230.006 163.37 229.562L162.507 221.609ZM148.382 227.388C144.537 230.671 141.886 235.038 140.324 240.278L147.99 242.563C149.182 238.566 151.079 235.605 153.577 233.471L148.382 227.388ZM140.317 240.301C138.787 245.55 138.464 251.546 139.184 258.186L147.138 257.322C146.496 251.415 146.837 246.521 147.997 242.54L140.317 240.301ZM139.184 258.186C139.931 265.064 141.56 270.994 144.229 275.811L151.227 271.934C149.224 268.319 147.808 263.503 147.138 257.322L139.184 258.186ZM144.246 275.842C146.927 280.58 150.455 284.22 154.898 286.507L158.56 279.395C155.731 277.938 153.259 275.525 151.21 271.903L144.246 275.842ZM154.937 286.527C159.385 288.757 164.345 289.5 169.668 288.922L168.804 280.969C164.781 281.406 161.402 280.819 158.521 279.375L154.937 286.527ZM169.668 288.922C172.63 288.601 175.382 287.918 177.882 286.826L174.679 279.495C173.036 280.213 171.092 280.721 168.804 280.969L169.668 288.922ZM177.866 286.833C180.375 285.75 182.594 284.305 184.47 282.474L178.883 276.749C177.772 277.833 176.394 278.755 174.695 279.489L177.866 286.833ZM184.477 282.467C186.371 280.61 187.853 278.448 188.911 276.007L181.572 272.824C180.921 274.326 180.026 275.628 178.875 276.756L184.477 282.467ZM188.903 276.027C189.992 273.552 190.61 270.879 190.796 268.048L182.814 267.522C182.682 269.518 182.257 271.266 181.581 272.804L188.903 276.027ZM187.213 271.764L211.235 269.302L210.42 261.344L186.397 263.806L187.213 271.764ZM206.828 265.374C206.877 269.242 206.178 273.18 204.681 277.21L212.181 279.995C213.992 275.116 214.89 270.201 214.827 265.272L206.828 265.374ZM204.673 277.233C203.222 281.213 201.023 284.978 198.032 288.53L204.153 293.682C207.703 289.465 210.396 284.893 212.189 279.972L204.673 277.233ZM198.044 288.516C195.143 291.931 191.418 294.857 186.793 297.266L190.489 304.361C195.919 301.533 200.494 297.988 204.141 293.696L198.044 288.516ZM186.786 297.27C182.315 299.61 176.942 301.169 170.586 301.859L171.449 309.812C178.601 309.036 184.977 307.247 190.496 304.357L186.786 297.27ZM170.586 301.859C162.29 302.759 154.799 301.737 148.022 298.886L144.92 306.26C153.076 309.691 161.949 310.843 171.449 309.812L170.586 301.859ZM148.042 298.895C141.345 296.035 135.767 291.417 131.286 284.917L124.7 289.458C129.982 297.12 136.722 302.759 144.9 306.252L148.042 298.895ZM131.286 284.917C126.867 278.508 124.008 270.25 122.891 259.954L114.937 260.817C116.162 272.095 119.355 281.706 124.7 289.458L131.286 284.917ZM122.891 259.954C121.77 249.633 122.82 240.944 125.815 233.737L118.428 230.667C114.798 239.4 113.709 249.501 114.937 260.817L122.891 259.954ZM125.815 233.737C128.858 226.416 133.364 220.716 139.324 216.511L134.712 209.974C127.436 215.107 122.01 222.047 118.428 230.667L125.815 233.737ZM139.324 216.511C145.341 212.265 152.361 209.674 160.484 208.792L159.621 200.839C150.267 201.854 141.931 204.88 134.712 209.974L139.324 216.511ZM160.484 208.792C166.065 208.186 171.23 208.414 176.007 209.431L177.673 201.607C171.974 200.393 165.948 200.152 159.621 200.839L160.484 208.792ZM176.029 209.436C180.803 210.424 185.037 212.158 188.772 214.615L193.167 207.93C188.533 204.883 183.346 202.781 177.651 201.602L176.029 209.436ZM188.789 214.625C192.499 217.039 195.657 220.168 198.267 224.057L204.909 219.598C201.724 214.853 197.803 210.946 193.151 207.919L188.789 214.625ZM198.267 224.057C200.839 227.888 202.717 232.465 203.842 237.86L211.673 236.226C210.368 229.967 208.133 224.4 204.909 219.598L198.267 224.057ZM237.201 197.801L241.178 197.37L240.746 193.393L236.769 193.825L237.201 197.801ZM247.874 296.133L248.306 300.11L252.283 299.678L251.851 295.701L247.874 296.133ZM224.108 298.713L220.131 299.144L220.563 303.121L224.539 302.689L224.108 298.713ZM213.434 200.381L213.003 196.405L209.026 196.836L209.458 200.813L213.434 200.381ZM233.224 198.233L243.898 296.565L251.851 295.701L241.178 197.37L233.224 198.233ZM247.443 292.156L223.676 294.736L224.539 302.689L248.306 300.11L247.443 292.156ZM228.084 298.281L217.411 199.95L209.458 200.813L220.131 299.144L228.084 298.281ZM213.866 204.358L237.633 201.778L236.769 193.825L213.003 196.405L213.866 204.358ZM246.943 216.273L242.967 216.704L243.398 220.681L247.375 220.249L246.943 216.273ZM244.848 196.971L244.417 192.995L240.44 193.426L240.872 197.403L244.848 196.971ZM327.959 187.95L331.936 187.519L331.504 183.542L327.528 183.974L327.959 187.95ZM330.054 207.252L330.486 211.228L334.463 210.797L334.031 206.82L330.054 207.252ZM300.238 210.488L299.806 206.511L295.83 206.943L296.261 210.92L300.238 210.488ZM308.816 289.518L309.248 293.495L313.225 293.063L312.793 289.086L308.816 289.518ZM285.386 292.061L281.409 292.493L281.841 296.47L285.817 296.038L285.386 292.061ZM276.808 213.031L280.784 212.6L280.353 208.623L276.376 209.055L276.808 213.031ZM250.92 215.841L248.825 196.54L240.872 197.403L242.967 216.704L250.92 215.841ZM245.28 200.948L328.391 191.927L327.528 183.974L244.417 192.995L245.28 200.948ZM323.983 188.382L326.078 207.683L334.031 206.82L331.936 187.519L323.983 188.382ZM329.623 203.275L299.806 206.511L300.67 214.465L330.486 211.228L329.623 203.275ZM296.261 210.92L304.84 289.95L312.793 289.086L304.215 210.056L296.261 210.92ZM308.385 285.541L284.954 288.085L285.817 296.038L309.248 293.495L308.385 285.541ZM289.362 291.63L280.784 212.6L272.831 213.463L281.409 292.493L289.362 291.63ZM276.376 209.055L246.512 212.296L247.375 220.249L277.239 217.008L276.376 209.055ZM359.277 184.551L363.254 184.119L362.822 180.143L358.845 180.574L359.277 184.551ZM369.95 282.882L370.382 286.859L374.359 286.427L373.927 282.451L369.95 282.882ZM346.184 285.462L342.207 285.894L342.639 289.87L346.615 289.439L346.184 285.462ZM335.51 187.131L335.079 183.154L331.102 183.586L331.534 187.562L335.51 187.131ZM355.3 184.982L365.974 283.314L373.927 282.451L363.254 184.119L355.3 184.982ZM369.519 278.906L345.752 281.485L346.615 289.439L370.382 286.859L369.519 278.906ZM350.16 285.03L339.487 186.699L331.534 187.562L342.207 285.894L350.16 285.03ZM335.942 191.107L359.709 188.527L358.845 180.574L335.079 183.154L335.942 191.107ZM465.032 250.653L461.344 249.105L461.344 249.105L465.032 250.653ZM449.992 269.628L447.699 266.351L447.692 266.355L449.992 269.628ZM402.309 274.755L403.866 271.07L403.866 271.07L402.309 274.755ZM383.596 259.443L380.318 261.735L380.324 261.744L380.33 261.752L383.596 259.443ZM377.629 204.468L373.94 202.921L373.935 202.933L377.629 204.468ZM392.621 185.498L394.921 188.771L394.921 188.771L392.621 185.498ZM440.299 180.323L438.755 184.013L438.762 184.016L440.299 180.323ZM459.06 195.629L455.789 197.932L455.789 197.932L459.06 195.629ZM439.495 209.169L435.972 211.064L435.978 211.075L435.984 211.086L439.495 209.169ZM430.627 199.978L428.757 203.514L428.765 203.519L428.773 203.523L430.627 199.978ZM406.332 202.615L408.904 205.679L408.904 205.679L406.332 202.615ZM399.596 213.5L395.755 212.381L395.752 212.393L395.748 212.404L399.596 213.5ZM403.119 245.957L399.596 247.852L399.602 247.863L399.608 247.874L403.119 245.957ZM412.034 255.142L413.888 251.598L413.888 251.598L412.034 255.142ZM436.329 252.505L433.757 249.441L433.75 249.447L433.744 249.453L436.329 252.505ZM443.018 241.626L439.177 240.507L439.174 240.519L439.171 240.531L443.018 241.626ZM464.311 222.895C465.431 233.212 464.367 241.898 461.344 249.105L468.721 252.2C472.387 243.46 473.493 233.353 472.264 222.032L464.311 222.895ZM461.344 249.105C458.273 256.426 453.724 262.134 447.699 266.351L452.286 272.905C459.625 267.769 465.102 260.827 468.721 252.2L461.344 249.105ZM447.692 266.355C441.644 270.605 434.573 273.205 426.382 274.094L427.245 282.047C436.658 281.025 445.04 277.996 452.292 272.901L447.692 266.355ZM426.382 274.094C418.161 274.986 410.684 273.951 403.866 271.07L400.753 278.44C408.937 281.898 417.797 283.073 427.245 282.047L426.382 274.094ZM403.866 271.07C397.093 268.209 391.433 263.601 386.863 257.135L380.33 261.752C385.708 269.362 392.524 274.963 400.753 278.44L403.866 271.07ZM386.874 257.151C382.401 250.753 379.515 242.507 378.398 232.22L370.445 233.084C371.67 244.371 374.9 253.986 380.318 261.735L386.874 257.151ZM378.398 232.22C377.278 221.899 378.327 213.21 381.323 206.003L373.935 202.933C370.305 211.666 369.216 221.767 370.445 233.084L378.398 232.22ZM381.318 206.015C384.39 198.69 388.927 192.983 394.921 188.771L390.321 182.225C383.015 187.359 377.557 194.299 373.94 202.921L381.318 206.015ZM394.921 188.771C400.967 184.522 408.053 181.92 416.28 181.027L415.416 173.074C405.974 174.098 397.575 177.128 390.321 182.225L394.921 188.771ZM416.28 181.027C424.472 180.138 431.935 181.16 438.755 184.013L441.842 176.633C433.666 173.212 424.829 172.052 415.416 173.074L416.28 181.027ZM438.762 184.016C445.551 186.841 451.219 191.44 455.789 197.932L462.331 193.327C456.945 185.677 450.106 180.072 441.835 176.63L438.762 184.016ZM455.789 197.932C460.288 204.323 463.191 212.578 464.311 222.895L472.264 222.032C471.036 210.71 467.786 201.076 462.331 193.327L455.789 197.932ZM447.97 224.669C447.236 217.913 445.63 212.058 443.005 207.252L435.984 211.086C437.967 214.718 439.36 219.484 440.016 225.532L447.97 224.669ZM443.017 207.274C440.431 202.468 436.942 198.768 432.482 196.434L428.773 203.523C431.592 204.998 434.014 207.425 435.972 211.064L443.017 207.274ZM432.497 196.442C428.071 194.102 423.073 193.326 417.678 193.911L418.541 201.865C422.621 201.422 425.968 202.039 428.757 203.514L432.497 196.442ZM417.678 193.911C412.308 194.494 407.603 196.327 403.761 199.552L408.904 205.679C411.355 203.622 414.501 202.303 418.541 201.865L417.678 193.911ZM403.761 199.552C399.911 202.783 397.283 207.138 395.755 212.381L403.436 214.619C404.598 210.631 406.461 207.73 408.904 205.679L403.761 199.552ZM395.748 212.404C394.255 217.65 393.959 223.703 394.692 230.452L402.645 229.589C401.988 223.534 402.31 218.573 403.443 214.595L395.748 212.404ZM394.692 230.452C395.424 237.201 397.012 243.049 399.596 247.852L406.641 244.062C404.681 240.42 403.302 235.643 402.645 229.589L394.692 230.452ZM399.608 247.874C402.225 252.666 405.726 256.356 410.18 258.686L413.888 251.598C411.062 250.119 408.62 247.686 406.629 244.04L399.608 247.874ZM410.18 258.686C414.624 261.012 419.613 261.792 424.983 261.209L424.12 253.256C420.079 253.695 416.723 253.081 413.888 251.598L410.18 258.686ZM424.983 261.209C430.378 260.624 435.093 258.793 438.914 255.558L433.744 249.453C431.336 251.492 428.199 252.813 424.12 253.256L424.983 261.209ZM438.9 255.569C442.756 252.332 445.37 247.97 446.865 242.721L439.171 240.531C438.039 244.506 436.194 247.396 433.757 249.441L438.9 255.569ZM446.858 242.745C448.39 237.488 448.703 231.425 447.97 224.669L440.016 225.532C440.673 231.58 440.335 236.534 439.177 240.507L446.858 242.745ZM556.458 163.148L560.435 162.716L560.003 158.74L556.027 159.171L556.458 163.148ZM567.132 261.48L567.563 265.456L571.54 265.025L571.108 261.048L567.132 261.48ZM546.966 263.668L543.937 266.281L545.309 267.872L547.398 267.645L546.966 263.668ZM501.675 211.164L504.704 208.551L503.332 206.961L501.243 207.187L501.675 211.164ZM501.051 211.232L500.619 207.255L496.642 207.687L497.074 211.663L501.051 211.232ZM507.211 267.984L507.642 271.96L511.619 271.529L511.187 267.552L507.211 267.984ZM483.444 270.563L479.467 270.995L479.899 274.972L483.876 274.54L483.444 270.563ZM472.771 172.232L472.339 168.255L468.363 168.687L468.794 172.663L472.771 172.232ZM493.225 170.012L496.265 167.412L494.892 165.807L492.793 166.035L493.225 170.012ZM538.073 222.467L535.033 225.066L536.405 226.672L538.505 226.444L538.073 222.467ZM538.889 222.378L539.321 226.355L543.298 225.923L542.866 221.947L538.889 222.378ZM532.74 165.723L532.308 161.746L528.331 162.178L528.763 166.154L532.74 165.723ZM552.482 163.58L563.155 261.911L571.108 261.048L560.435 162.716L552.482 163.58ZM566.7 257.503L546.534 259.692L547.398 267.645L567.563 265.456L566.7 257.503ZM549.995 261.056L504.704 208.551L498.646 213.777L543.937 266.281L549.995 261.056ZM501.243 207.187L500.619 207.255L501.482 215.208L502.106 215.141L501.243 207.187ZM497.074 211.663L503.234 268.415L511.187 267.552L505.027 210.8L497.074 211.663ZM506.779 264.007L483.012 266.587L483.876 274.54L507.642 271.96L506.779 264.007ZM487.421 270.132L476.747 171.8L468.794 172.663L479.467 270.995L487.421 270.132ZM473.202 176.208L493.656 173.988L492.793 166.035L472.339 168.255L473.202 176.208ZM490.184 172.611L535.033 225.066L541.113 219.868L496.265 167.412L490.184 172.611ZM538.505 226.444L539.321 226.355L538.458 218.402L537.641 218.49L538.505 226.444ZM542.866 221.947L536.716 165.291L528.763 166.154L534.913 222.81L542.866 221.947ZM533.171 169.699L556.89 167.125L556.027 159.171L532.308 161.746L533.171 169.699Z" fill="white"/>
<path d="M646.411 194.979L646.59 195.257L646.916 195.202L679.799 189.614L651.746 207.657L651.468 207.835L651.523 208.161L657.11 241.045L639.068 212.991L638.889 212.713L638.564 212.768L605.68 218.356L633.734 200.313L634.012 200.134L633.956 199.809L628.369 166.925L646.411 194.979Z" fill="white" stroke="white"/>
<path d="M728.779 243.934L724.802 244.365L725.234 248.342L729.21 247.91L728.779 243.934ZM718.105 145.602L717.674 141.625L713.697 142.057L714.129 146.034L718.105 145.602ZM741.872 143.022L745.849 142.591L745.417 138.614L741.44 139.046L741.872 143.022ZM750.45 222.053L746.474 222.484L746.905 226.461L750.882 226.029L750.45 222.053ZM791.358 217.612L795.334 217.181L794.903 213.204L790.926 213.636L791.358 217.612ZM793.453 236.914L793.884 240.89L797.861 240.459L797.429 236.482L793.453 236.914ZM732.755 243.502L722.082 145.17L714.129 146.034L724.802 244.365L732.755 243.502ZM718.537 149.579L742.304 146.999L741.44 139.046L717.674 141.625L718.537 149.579ZM737.895 143.454L746.474 222.484L754.427 221.621L745.849 142.591L737.895 143.454ZM750.882 226.029L791.789 221.589L790.926 213.636L750.019 218.076L750.882 226.029ZM787.381 218.044L789.476 237.345L797.429 236.482L795.334 217.181L787.381 218.044ZM793.021 232.937L728.347 239.957L729.21 247.91L793.884 240.89L793.021 232.937ZM814.793 135.107L818.77 134.676L818.338 130.699L814.362 131.131L814.793 135.107ZM825.467 233.439L825.898 237.415L829.875 236.984L829.443 233.007L825.467 233.439ZM801.7 236.018L797.723 236.45L798.155 240.427L802.132 239.995L801.7 236.018ZM791.027 137.687L790.595 133.71L786.618 134.142L787.05 138.119L791.027 137.687ZM810.817 135.539L821.49 233.87L829.443 233.007L818.77 134.676L810.817 135.539ZM825.035 229.462L801.268 232.042L802.132 239.995L825.898 237.415L825.035 229.462ZM805.677 235.587L795.003 137.255L787.05 138.119L797.723 236.45L805.677 235.587ZM791.458 141.664L815.225 139.084L814.362 131.131L790.595 133.71L791.458 141.664ZM847.984 131.505L851.661 129.931L850.496 127.208L847.552 127.528L847.984 131.505ZM877.791 201.138L874.114 202.712L875.279 205.434L878.223 205.115L877.791 201.138ZM878.607 201.049L879.039 205.026L881.983 204.706L882.537 201.798L878.607 201.049ZM892.78 126.642L892.348 122.666L889.405 122.985L888.851 125.894L892.78 126.642ZM919.38 123.755L923.285 124.617L924.486 119.177L918.948 119.778L919.38 123.755ZM896.876 225.688L897.307 229.664L900.162 229.354L900.781 226.55L896.876 225.688ZM865.235 229.122L861.605 230.802L862.811 233.409L865.666 233.099L865.235 229.122ZM821.384 134.392L820.952 130.415L815.414 131.016L817.754 136.072L821.384 134.392ZM844.306 133.079L874.114 202.712L881.468 199.564L851.661 129.931L844.306 133.079ZM878.223 205.115L879.039 205.026L878.176 197.073L877.359 197.161L878.223 205.115ZM882.537 201.798L896.709 127.391L888.851 125.894L874.678 200.301L882.537 201.798ZM893.212 130.619L919.811 127.732L918.948 119.778L892.348 122.666L893.212 130.619ZM915.474 122.893L892.97 224.825L900.781 226.55L923.285 124.617L915.474 122.893ZM896.444 221.711L864.803 225.146L865.666 233.099L897.307 229.664L896.444 221.711ZM868.865 227.442L825.014 132.712L817.754 136.072L861.605 230.802L868.865 227.442ZM821.816 138.368L848.415 135.481L847.552 127.528L820.952 130.415L821.816 138.368ZM936.584 221.378L932.607 221.809L933.039 225.786L937.015 225.354L936.584 221.378ZM925.91 123.046L925.479 119.069L921.502 119.501L921.934 123.478L925.91 123.046ZM994.473 115.604L998.45 115.172L998.018 111.196L994.042 111.627L994.473 115.604ZM996.569 134.905L997 138.882L1000.98 138.45L1000.55 134.474L996.569 134.905ZM951.772 139.768L951.34 135.791L947.364 136.223L947.795 140.199L951.772 139.768ZM953.961 159.933L949.984 160.365L950.416 164.342L954.392 163.91L953.961 159.933ZM995.252 155.451L999.229 155.02L998.797 151.043L994.821 151.475L995.252 155.451ZM997.353 174.801L997.784 178.778L1001.76 178.346L1001.33 174.369L997.353 174.801ZM956.061 179.283L955.629 175.306L951.653 175.738L952.084 179.715L956.061 179.283ZM958.255 199.497L954.279 199.928L954.71 203.905L958.687 203.473L958.255 199.497ZM1003.05 194.634L1007.03 194.202L1006.6 190.226L1002.62 190.657L1003.05 194.634ZM1005.15 213.936L1005.58 217.912L1009.56 217.481L1009.12 213.504L1005.15 213.936ZM940.56 220.946L929.887 122.614L921.934 123.478L932.607 221.809L940.56 220.946ZM926.342 127.023L994.905 119.581L994.042 111.627L925.479 119.069L926.342 127.023ZM990.497 116.036L992.592 135.337L1000.55 134.474L998.45 115.172L990.497 116.036ZM996.137 130.929L951.34 135.791L952.204 143.744L997 138.882L996.137 130.929ZM947.795 140.199L949.984 160.365L957.937 159.502L955.749 139.336L947.795 140.199ZM954.392 163.91L995.684 159.428L994.821 151.475L953.529 155.957L954.392 163.91ZM991.276 155.883L993.376 175.233L1001.33 174.369L999.229 155.02L991.276 155.883ZM996.921 170.824L955.629 175.306L956.493 183.26L997.784 178.778L996.921 170.824ZM952.084 179.715L954.279 199.928L962.232 199.065L960.038 178.851L952.084 179.715ZM958.687 203.473L1003.48 198.611L1002.62 190.657L957.824 195.52L958.687 203.473ZM999.075 195.066L1001.17 214.367L1009.12 213.504L1007.03 194.202L999.075 195.066ZM1004.72 209.959L936.152 217.401L937.015 225.354L1005.58 217.912L1004.72 209.959ZM1062.24 207.739L1062.67 211.715L1065.59 211.398L1066.16 208.516L1062.24 207.739ZM1036.69 210.511L1032.79 209.649L1031.59 215.089L1037.13 214.488L1036.69 210.511ZM1059.2 108.579L1058.77 104.602L1055.91 104.912L1055.29 107.716L1059.2 108.579ZM1090.84 105.144L1094.47 103.464L1093.26 100.858L1090.41 101.168L1090.84 105.144ZM1134.69 199.874L1135.12 203.851L1140.66 203.25L1138.32 198.194L1134.69 199.874ZM1109.15 202.647L1105.48 204.25L1106.66 206.941L1109.58 206.624L1109.15 202.647ZM1078.07 131.597L1081.73 129.994L1080.56 127.304L1077.64 127.621L1078.07 131.597ZM1077.3 131.681L1076.87 127.704L1073.95 128.021L1073.38 130.904L1077.3 131.681ZM1054.63 169.41L1054.2 165.433L1050.22 165.865L1050.65 169.842L1054.63 169.41ZM1108.02 163.615L1111.99 163.183L1111.56 159.206L1107.59 159.638L1108.02 163.615ZM1109.98 181.668L1110.41 185.644L1114.39 185.213L1113.95 181.236L1109.98 181.668ZM1056.59 187.463L1052.61 187.895L1053.04 191.871L1057.02 191.44L1056.59 187.463ZM1061.81 203.762L1036.26 206.535L1037.13 214.488L1062.67 211.715L1061.81 203.762ZM1040.6 211.374L1063.1 109.441L1055.29 107.716L1032.79 209.649L1040.6 211.374ZM1059.63 112.555L1091.27 109.121L1090.41 101.168L1058.77 104.602L1059.63 112.555ZM1087.21 106.824L1131.06 201.555L1138.32 198.194L1094.47 103.464L1087.21 106.824ZM1134.26 195.898L1108.71 198.67L1109.58 206.624L1135.12 203.851L1134.26 195.898ZM1112.81 201.044L1081.73 129.994L1074.4 133.2L1105.48 204.25L1112.81 201.044ZM1077.64 127.621L1076.87 127.704L1077.73 135.657L1078.5 135.574L1077.64 127.621ZM1073.38 130.904L1058.31 206.962L1066.16 208.516L1081.22 132.458L1073.38 130.904ZM1055.06 173.387L1108.45 167.591L1107.59 159.638L1054.2 165.433L1055.06 173.387ZM1104.04 164.046L1106 182.099L1113.95 181.236L1111.99 163.183L1104.04 164.046ZM1109.55 177.691L1056.16 183.486L1057.02 191.44L1110.41 185.644L1109.55 177.691ZM1060.56 187.031L1058.6 168.978L1050.65 169.842L1052.61 187.895L1060.56 187.031ZM1190.04 94.3769L1189.6 90.4003L1185.63 90.8319L1186.06 94.8086L1190.04 94.3769ZM1213.75 91.8024L1217.73 91.3708L1217.3 87.3941L1213.32 87.8258L1213.75 91.8024ZM1217.48 174.954L1221.06 176.746L1221.06 176.737L1217.48 174.954ZM1204.25 189.117L1206.34 192.53L1206.35 192.525L1206.35 192.521L1204.25 189.117ZM1160.61 193.855L1159.29 197.63L1159.29 197.633L1159.3 197.635L1160.61 193.855ZM1144.7 182.854L1141.57 185.351L1141.58 185.359L1144.7 182.854ZM1130.55 100.834L1130.11 96.8574L1126.14 97.2891L1126.57 101.266L1130.55 100.834ZM1154.31 98.2544L1158.29 97.8227L1157.86 93.8461L1153.88 94.2777L1154.31 98.2544ZM1164.17 168.45L1160.9 170.756L1160.91 170.771L1160.92 170.785L1164.17 168.45ZM1171.13 174.009L1172.7 170.328L1171.13 174.009ZM1189.81 171.982L1187.49 168.722L1187.48 168.728L1187.48 168.734L1189.81 171.982ZM1190.47 98.3536L1214.19 95.7791L1213.32 87.8258L1189.6 90.4003L1190.47 98.3536ZM1209.78 92.2341L1216.66 155.66L1224.61 154.797L1217.73 91.3708L1209.78 92.2341ZM1216.66 155.66C1217.39 162.334 1216.42 168.124 1213.9 173.171L1221.06 176.737C1224.35 170.143 1225.48 162.783 1224.61 154.797L1216.66 155.66ZM1213.91 173.161C1211.36 178.236 1207.49 182.419 1202.15 185.714L1206.35 192.521C1212.86 188.507 1217.8 183.247 1221.06 176.746L1213.91 173.161ZM1202.17 185.705C1196.84 188.965 1190.34 191.074 1182.55 191.919L1183.41 199.872C1192.15 198.924 1199.83 196.515 1206.34 192.53L1202.17 185.705ZM1182.55 191.919C1174.66 192.775 1167.81 192.112 1161.92 190.074L1159.3 197.635C1166.53 200.132 1174.59 200.829 1183.41 199.872L1182.55 191.919ZM1161.93 190.08C1156.02 188.008 1151.35 184.756 1147.81 180.349L1141.58 185.359C1146.13 191.022 1152.07 195.103 1159.29 197.63L1161.93 190.08ZM1147.82 180.358C1144.31 175.963 1142.13 170.509 1141.41 163.828L1133.45 164.691C1134.32 172.671 1136.99 179.613 1141.57 185.351L1147.82 180.358ZM1141.41 163.828L1134.52 100.402L1126.57 101.266L1133.45 164.691L1141.41 163.828ZM1130.98 104.811L1154.74 102.231L1153.88 94.2777L1130.11 96.8574L1130.98 104.811ZM1150.34 98.686L1157 160.047L1164.95 159.184L1158.29 97.8227L1150.34 98.686ZM1157 160.047C1157.43 164.034 1158.7 167.642 1160.9 170.756L1167.44 166.145C1166.11 164.265 1165.25 161.983 1164.95 159.184L1157 160.047ZM1160.92 170.785C1163.14 173.879 1166.05 176.194 1169.57 177.69L1172.7 170.328C1170.51 169.399 1168.78 168.009 1167.41 166.115L1160.92 170.785ZM1169.57 177.69C1173.14 179.209 1177.05 179.674 1181.17 179.226L1180.31 171.273C1177.33 171.596 1174.83 171.235 1172.7 170.328L1169.57 177.69ZM1181.17 179.226C1185.3 178.779 1189.01 177.488 1192.15 175.23L1187.48 168.734C1185.63 170.062 1183.29 170.95 1180.31 171.273L1181.17 179.226ZM1192.13 175.242C1195.25 173.025 1197.59 170.14 1199.1 166.641L1191.75 163.474C1190.83 165.615 1189.43 167.346 1187.49 168.722L1192.13 175.242ZM1199.1 166.641C1200.62 163.119 1201.11 159.308 1200.67 155.306L1192.72 156.17C1193.02 158.954 1192.66 161.357 1191.75 163.474L1199.1 166.641ZM1200.67 155.306L1194.01 93.9453L1186.06 94.8086L1192.72 156.17L1200.67 155.306ZM1317.72 116.563L1318.15 120.54L1322.53 120.064L1321.63 115.747L1317.72 116.563ZM1293.71 119.169L1289.82 120.109L1290.65 123.525L1294.14 123.146L1293.71 119.169ZM1291.02 112.709L1287.65 114.874L1287.65 114.874L1291.02 112.709ZM1286.53 108.047L1288.8 104.754L1288.8 104.754L1286.53 108.047ZM1280.37 105.461L1279.47 109.358L1279.5 109.366L1279.54 109.373L1280.37 105.461ZM1260.94 109.95L1258.36 106.897L1258.35 106.903L1258.34 106.908L1260.94 109.95ZM1254.12 120.941L1250.28 119.798L1250.28 119.81L1250.28 119.822L1254.12 120.941ZM1257.69 153.393L1254.19 155.331L1254.2 155.347L1254.21 155.362L1257.69 153.393ZM1266.69 162.472L1264.86 166.028L1264.88 166.038L1264.9 166.048L1266.69 162.472ZM1286.24 162.681L1284.65 159.009L1284.65 159.012L1284.64 159.016L1286.24 162.681ZM1291.64 159.132L1294.43 161.995L1294.44 161.988L1291.64 159.132ZM1295.2 153.936L1291.54 152.324L1291.54 152.334L1291.53 152.344L1295.2 153.936ZM1296.76 147.305L1296.36 143.326L1293 143.67L1292.77 147.042L1296.76 147.305ZM1320.79 144.843L1324.79 144.792L1324.73 140.418L1320.38 140.864L1320.79 144.843ZM1318.39 158.123L1314.64 156.73L1314.64 156.742L1314.63 156.753L1318.39 158.123ZM1311.05 170.627L1314.1 173.217L1314.11 173.21L1314.11 173.203L1311.05 170.627ZM1298.6 180.334L1296.75 176.786L1296.75 176.79L1298.6 180.334ZM1256.43 182.094L1254.86 185.772L1254.87 185.776L1254.88 185.781L1256.43 182.094ZM1237.95 166.708L1241.25 164.438L1237.95 166.708ZM1232.08 111.722L1228.39 110.187L1232.08 111.722ZM1286.8 85.0396L1285.97 88.9518L1285.98 88.9542L1285.99 88.9565L1286.8 85.0396ZM1300.93 90.7928L1298.73 94.1349L1298.74 94.1404L1298.75 94.1458L1300.93 90.7928ZM1317.29 112.587L1293.28 115.193L1294.14 123.146L1318.15 120.54L1317.29 112.587ZM1297.6 118.229C1296.92 115.416 1295.86 112.84 1294.38 110.545L1287.65 114.874C1288.59 116.332 1289.33 118.062 1289.82 120.109L1297.6 118.229ZM1294.38 110.545C1292.9 108.236 1291.03 106.294 1288.8 104.754L1284.26 111.34C1285.59 112.262 1286.72 113.428 1287.65 114.874L1294.38 110.545ZM1288.8 104.754C1286.54 103.196 1283.99 102.14 1281.2 101.548L1279.54 109.373C1281.39 109.767 1282.95 110.435 1284.26 111.34L1288.8 104.754ZM1281.27 101.563C1278.48 100.92 1275.53 100.796 1272.47 101.129L1273.33 109.082C1275.64 108.832 1277.67 108.944 1279.47 109.358L1281.27 101.563ZM1272.47 101.129C1267.02 101.72 1262.25 103.598 1258.36 106.897L1263.52 113.003C1266.03 110.878 1269.24 109.527 1273.33 109.082L1272.47 101.129ZM1258.34 106.908C1254.5 110.192 1251.85 114.558 1250.28 119.798L1257.95 122.084C1259.14 118.086 1261.04 115.125 1263.54 112.992L1258.34 106.908ZM1250.28 119.822C1248.75 125.07 1248.42 131.066 1249.14 137.706L1257.1 136.843C1256.46 130.935 1256.8 126.042 1257.96 122.06L1250.28 119.822ZM1249.14 137.706C1249.89 144.585 1251.52 150.514 1254.19 155.331L1261.19 151.454C1259.18 147.84 1257.77 143.024 1257.1 136.843L1249.14 137.706ZM1254.21 155.362C1256.89 160.1 1260.41 163.74 1264.86 166.028L1268.52 158.915C1265.69 157.458 1263.22 155.046 1261.17 151.423L1254.21 155.362ZM1264.9 166.048C1269.35 168.277 1274.3 169.02 1279.63 168.443L1278.76 160.489C1274.74 160.926 1271.36 160.34 1268.48 158.896L1264.9 166.048ZM1279.63 168.443C1282.59 168.121 1285.34 167.439 1287.84 166.347L1284.64 159.016C1283 159.734 1281.05 160.241 1278.76 160.489L1279.63 168.443ZM1287.83 166.353C1290.33 165.27 1292.55 163.826 1294.43 161.995L1288.84 156.27C1287.73 157.354 1286.35 158.275 1284.65 159.009L1287.83 166.353ZM1294.44 161.988C1296.33 160.13 1297.81 157.968 1298.87 155.527L1291.53 152.344C1290.88 153.846 1289.99 155.148 1288.84 156.277L1294.44 161.988ZM1298.86 155.547C1299.95 153.072 1300.57 150.399 1300.76 147.568L1292.77 147.042C1292.64 149.039 1292.22 150.786 1291.54 152.324L1298.86 155.547ZM1297.17 151.284L1321.2 148.823L1320.38 140.864L1296.36 143.326L1297.17 151.284ZM1316.79 144.895C1316.84 148.762 1316.14 152.7 1314.64 156.73L1322.14 159.515C1323.95 154.636 1324.85 149.721 1324.79 144.792L1316.79 144.895ZM1314.63 156.753C1313.18 160.734 1310.98 164.498 1307.99 168.051L1314.11 173.203C1317.66 168.985 1320.36 164.414 1322.15 159.492L1314.63 156.753ZM1308 168.037C1305.1 171.451 1301.38 174.378 1296.75 176.786L1300.45 183.882C1305.88 181.053 1310.45 177.509 1314.1 173.217L1308 168.037ZM1296.75 176.79C1292.27 179.131 1286.9 180.689 1280.55 181.379L1281.41 189.333C1288.56 188.556 1294.94 186.767 1300.46 183.878L1296.75 176.79ZM1280.55 181.379C1272.25 182.28 1264.76 181.257 1257.98 178.407L1254.88 185.781C1263.04 189.212 1271.91 190.364 1281.41 189.333L1280.55 181.379ZM1258 178.415C1251.31 175.555 1245.73 170.937 1241.25 164.438L1234.66 168.978C1239.94 176.641 1246.68 182.28 1254.86 185.772L1258 178.415ZM1241.25 164.438C1236.83 158.028 1233.97 149.771 1232.85 139.475L1224.9 140.338C1226.12 151.616 1229.32 161.226 1234.66 168.978L1241.25 164.438ZM1232.85 139.475C1231.73 129.153 1232.78 120.465 1235.78 113.257L1228.39 110.187C1224.76 118.92 1223.67 129.021 1224.9 140.338L1232.85 139.475ZM1235.78 113.257C1238.82 105.936 1243.32 100.236 1249.28 96.031L1244.67 89.4942C1237.4 94.6278 1231.97 101.567 1228.39 110.187L1235.78 113.257ZM1249.28 96.031C1255.3 91.7857 1262.32 89.194 1270.44 88.3123L1269.58 80.359C1260.23 81.3743 1251.89 84.4006 1244.67 89.4942L1249.28 96.031ZM1270.44 88.3123C1276.02 87.7065 1281.19 87.9346 1285.97 88.9518L1287.63 81.1273C1281.93 79.9135 1275.91 79.6723 1269.58 80.359L1270.44 88.3123ZM1285.99 88.9565C1290.76 89.9446 1295 91.6786 1298.73 94.1349L1303.13 87.4506C1298.49 84.403 1293.31 82.3015 1287.61 81.1226L1285.99 88.9565ZM1298.75 94.1458C1302.46 96.5594 1305.62 99.6886 1308.23 103.577L1314.87 99.1185C1311.68 94.3734 1307.76 90.466 1303.11 87.4397L1298.75 94.1458ZM1308.23 103.577C1310.8 107.408 1312.68 111.985 1313.8 117.38L1321.63 115.747C1320.33 109.487 1318.09 103.921 1314.87 99.1185L1308.23 103.577ZM1347.16 77.3219L1351.14 76.8902L1350.71 72.9136L1346.73 73.3452L1347.16 77.3219ZM1357.83 175.653L1358.27 179.63L1362.24 179.198L1361.81 175.222L1357.83 175.653ZM1334.07 178.233L1330.09 178.665L1330.52 182.641L1334.5 182.21L1334.07 178.233ZM1323.39 79.9016L1322.96 75.9249L1318.99 76.3566L1319.42 80.3332L1323.39 79.9016ZM1343.18 77.7535L1353.86 176.085L1361.81 175.222L1351.14 76.8902L1343.18 77.7535ZM1357.4 171.677L1333.64 174.256L1334.5 182.21L1358.27 179.63L1357.4 171.677ZM1338.04 177.801L1327.37 79.47L1319.42 80.3332L1330.09 178.665L1338.04 177.801ZM1323.83 83.8782L1347.59 81.2985L1346.73 73.3452L1322.96 75.9249L1323.83 83.8782ZM1356.9 95.7932L1352.93 96.2249L1353.36 100.201L1357.33 99.7699L1356.9 95.7932ZM1354.81 76.4918L1354.38 72.5152L1350.4 72.9468L1350.83 76.9234L1354.81 76.4918ZM1437.92 67.4706L1441.9 67.0389L1441.46 63.0623L1437.49 63.4939L1437.92 67.4706ZM1440.01 86.772L1440.45 90.7486L1444.42 90.317L1443.99 86.3403L1440.01 86.772ZM1410.2 90.0084L1409.77 86.0317L1405.79 86.4634L1406.22 90.44L1410.2 90.0084ZM1418.78 169.038L1419.21 173.015L1423.18 172.583L1422.75 168.607L1418.78 169.038ZM1395.35 171.582L1391.37 172.013L1391.8 175.99L1395.78 175.558L1395.35 171.582ZM1386.77 92.5516L1390.74 92.12L1390.31 88.1433L1386.34 88.575L1386.77 92.5516ZM1360.88 95.3616L1358.78 76.0602L1350.83 76.9234L1352.93 96.2249L1360.88 95.3616ZM1355.24 80.4685L1438.35 71.4472L1437.49 63.4939L1354.38 72.5152L1355.24 80.4685ZM1433.94 67.9022L1436.04 87.2036L1443.99 86.3403L1441.9 67.0389L1433.94 67.9022ZM1439.58 82.7953L1409.77 86.0317L1410.63 93.985L1440.45 90.7486L1439.58 82.7953ZM1406.22 90.44L1414.8 169.47L1422.75 168.607L1414.17 89.5767L1406.22 90.44ZM1418.34 165.062L1394.91 167.605L1395.78 175.558L1419.21 173.015L1418.34 165.062ZM1399.32 171.15L1390.74 92.12L1382.79 92.9833L1391.37 172.013L1399.32 171.15ZM1386.34 88.575L1356.47 91.8166L1357.33 99.7699L1387.2 96.5283L1386.34 88.575ZM1469.24 64.0712L1473.21 63.6396L1472.78 59.6629L1468.81 60.0946L1469.24 64.0712ZM1479.91 162.403L1480.34 166.379L1484.32 165.948L1483.89 161.971L1479.91 162.403ZM1456.14 164.982L1452.17 165.414L1452.6 169.391L1456.58 168.959L1456.14 164.982ZM1445.47 66.651L1445.04 62.6743L1441.06 63.106L1441.49 67.0826L1445.47 66.651ZM1465.26 64.5029L1475.93 162.834L1483.89 161.971L1473.21 63.6396L1465.26 64.5029ZM1479.48 158.426L1455.71 161.006L1456.58 168.959L1480.34 166.379L1479.48 158.426ZM1460.12 164.551L1449.45 66.2193L1441.49 67.0826L1452.17 165.414L1460.12 164.551ZM1445.9 70.6276L1469.67 68.0479L1468.81 60.0946L1445.04 62.6743L1445.9 70.6276ZM1574.99 130.173L1571.3 128.626L1571.3 128.626L1574.99 130.173ZM1559.95 149.148L1557.66 145.871L1557.65 145.875L1559.95 149.148ZM1512.27 154.275L1513.83 150.591L1512.27 154.275ZM1493.56 138.964L1490.28 141.256L1490.28 141.264L1490.29 141.272L1493.56 138.964ZM1487.59 83.9884L1483.9 82.4412L1483.9 82.4532L1487.59 83.9884ZM1502.58 65.0184L1504.88 68.2912L1502.58 65.0184ZM1550.26 59.8433L1548.71 63.5333L1548.72 63.5362L1550.26 59.8433ZM1569.02 75.1496L1565.75 77.4522L1569.02 75.1496ZM1549.45 88.6894L1545.93 90.5846L1545.94 90.5955L1545.94 90.6064L1549.45 88.6894ZM1540.59 79.4988L1538.72 83.0348L1538.73 83.0389L1538.73 83.043L1540.59 79.4988ZM1516.29 82.1359L1518.86 85.1996L1516.29 82.1359ZM1509.56 93.0202L1505.72 91.901L1505.71 91.9129L1505.71 91.9249L1509.56 93.0202ZM1513.08 125.477L1509.56 127.373L1509.56 127.383L1509.57 127.394L1513.08 125.477ZM1521.99 134.663L1523.85 131.118L1521.99 134.663ZM1546.29 132.026L1543.72 128.962L1543.71 128.967L1543.7 128.973L1546.29 132.026ZM1552.98 121.146L1549.14 120.027L1549.13 120.039L1549.13 120.051L1552.98 121.146ZM1574.27 102.415C1575.39 112.732 1574.33 121.418 1571.3 128.626L1578.68 131.72C1582.35 122.98 1583.45 112.874 1582.22 101.552L1574.27 102.415ZM1571.3 128.626C1568.23 135.947 1563.68 141.654 1557.66 145.871L1562.25 152.425C1569.58 147.289 1575.06 140.347 1578.68 131.72L1571.3 128.626ZM1557.65 145.875C1551.6 150.126 1544.53 152.725 1536.34 153.614L1537.2 161.567C1546.62 160.546 1555 157.517 1562.25 152.421L1557.65 145.875ZM1536.34 153.614C1528.12 154.507 1520.64 153.471 1513.83 150.591L1510.71 157.96C1518.9 161.418 1527.76 162.593 1537.2 161.567L1536.34 153.614ZM1513.83 150.591C1507.05 147.729 1501.39 143.122 1496.82 136.655L1490.29 141.272C1495.67 148.883 1502.48 154.483 1510.71 157.96L1513.83 150.591ZM1496.83 136.672C1492.36 130.274 1489.47 122.028 1488.36 111.741L1480.4 112.604C1481.63 123.891 1484.86 133.506 1490.28 141.256L1496.83 136.672ZM1488.36 111.741C1487.24 101.42 1488.29 92.7309 1491.28 85.5236L1483.9 82.4532C1480.27 91.1866 1479.18 101.287 1480.4 112.604L1488.36 111.741ZM1491.28 85.5357C1494.35 78.21 1498.89 72.5031 1504.88 68.2912L1500.28 61.7456C1492.98 66.8795 1487.52 73.8193 1483.9 82.4412L1491.28 85.5357ZM1504.88 68.2912C1510.93 64.0425 1518.01 61.4402 1526.24 60.5472L1525.38 52.5939C1515.93 53.6188 1507.54 56.6483 1500.28 61.7456L1504.88 68.2912ZM1526.24 60.5472C1534.43 59.658 1541.9 60.6799 1548.71 63.5333L1551.8 56.1533C1543.63 52.7321 1534.79 51.5722 1525.38 52.5939L1526.24 60.5472ZM1548.72 63.5362C1555.51 66.3619 1561.18 70.9608 1565.75 77.4522L1572.29 72.847C1566.91 65.1975 1560.07 59.5922 1551.8 56.1503L1548.72 63.5362ZM1565.75 77.4522C1570.25 83.8434 1573.15 92.0987 1574.27 102.415L1582.22 101.552C1581 90.2308 1577.75 80.5967 1572.29 72.847L1565.75 77.4522ZM1557.93 104.189C1557.2 97.4334 1555.59 91.5787 1552.97 86.7723L1545.94 90.6064C1547.93 94.2384 1549.32 99.0047 1549.98 105.052L1557.93 104.189ZM1552.98 86.7941C1550.39 81.9882 1546.9 78.2885 1542.44 75.9547L1538.73 83.043C1541.55 84.5179 1543.97 86.9451 1545.93 90.5846L1552.98 86.7941ZM1542.46 75.9628C1538.03 73.6223 1533.03 72.8462 1527.64 73.4318L1528.5 81.385C1532.58 80.9422 1535.93 81.5597 1538.72 83.0348L1542.46 75.9628ZM1527.64 73.4318C1522.27 74.0146 1517.56 75.8473 1513.72 79.0721L1518.86 85.1996C1521.31 83.1426 1524.46 81.8236 1528.5 81.385L1527.64 73.4318ZM1513.72 79.0721C1509.87 82.3035 1507.24 86.6587 1505.72 91.901L1513.4 94.1394C1514.56 90.1511 1516.42 87.2501 1518.86 85.1996L1513.72 79.0721ZM1505.71 91.9249C1504.21 97.1709 1503.92 103.223 1504.65 109.972L1512.6 109.109C1511.95 103.054 1512.27 98.0931 1513.4 94.1155L1505.71 91.9249ZM1504.65 109.972C1505.38 116.721 1506.97 122.569 1509.56 127.373L1516.6 123.582C1514.64 119.94 1513.26 115.164 1512.6 109.109L1504.65 109.972ZM1509.57 127.394C1512.18 132.187 1515.69 135.877 1520.14 138.207L1523.85 131.118C1521.02 129.64 1518.58 127.206 1516.59 123.56L1509.57 127.394ZM1520.14 138.207C1524.58 140.532 1529.57 141.313 1534.94 140.73L1534.08 132.776C1530.04 133.215 1526.68 132.602 1523.85 131.118L1520.14 138.207ZM1534.94 140.73C1540.34 140.144 1545.05 138.314 1548.87 135.078L1543.7 128.973C1541.3 131.012 1538.16 132.334 1534.08 132.776L1534.94 140.73ZM1548.86 135.089C1552.72 131.853 1555.33 127.491 1556.82 122.242L1549.13 120.051C1548 124.026 1546.15 126.916 1543.72 128.962L1548.86 135.089ZM1556.82 122.266C1558.35 117.008 1558.66 110.945 1557.93 104.189L1549.98 105.052C1550.63 111.1 1550.3 116.054 1549.14 120.027L1556.82 122.266ZM1666.42 42.6684L1670.39 42.2367L1669.96 38.2601L1665.99 38.6917L1666.42 42.6684ZM1677.09 141L1677.52 144.977L1681.5 144.545L1681.07 140.568L1677.09 141ZM1656.93 143.189L1653.9 145.801L1655.27 147.392L1657.36 147.165L1656.93 143.189ZM1611.63 90.6843L1614.66 88.0716L1613.29 86.481L1611.2 86.7077L1611.63 90.6843ZM1611.01 90.7521L1610.58 86.7754L1606.6 87.2071L1607.03 91.1837L1611.01 90.7521ZM1617.17 147.504L1617.6 151.481L1621.58 151.049L1621.15 147.072L1617.17 147.504ZM1593.4 150.084L1589.43 150.515L1589.86 154.492L1593.84 154.06L1593.4 150.084ZM1582.73 51.7522L1582.3 47.7755L1578.32 48.2072L1578.75 52.1838L1582.73 51.7522ZM1603.18 49.532L1606.22 46.9326L1604.85 45.3275L1602.75 45.5554L1603.18 49.532ZM1648.03 101.987L1644.99 104.587L1646.37 106.192L1648.46 105.964L1648.03 101.987ZM1648.85 101.899L1649.28 105.875L1653.26 105.444L1652.83 101.467L1648.85 101.899ZM1642.7 45.2429L1642.27 41.2663L1638.29 41.6979L1638.72 45.6745L1642.7 45.2429ZM1662.44 43.1L1673.11 141.432L1681.07 140.568L1670.39 42.2367L1662.44 43.1ZM1676.66 137.023L1656.49 139.212L1657.36 147.165L1677.52 144.977L1676.66 137.023ZM1659.95 140.576L1614.66 88.0716L1608.61 93.297L1653.9 145.801L1659.95 140.576ZM1611.2 86.7077L1610.58 86.7754L1611.44 94.7287L1612.07 94.661L1611.2 86.7077ZM1607.03 91.1837L1613.19 147.936L1621.15 147.072L1614.99 90.3204L1607.03 91.1837ZM1616.74 143.527L1592.97 146.107L1593.84 154.06L1617.6 151.481L1616.74 143.527ZM1597.38 149.652L1586.71 51.3205L1578.75 52.1838L1589.43 150.515L1597.38 149.652ZM1583.16 55.7288L1603.62 53.5087L1602.75 45.5554L1582.3 47.7755L1583.16 55.7288ZM1600.14 52.1314L1644.99 104.587L1651.07 99.388L1606.22 46.9326L1600.14 52.1314ZM1648.46 105.964L1649.28 105.875L1648.42 97.9221L1647.6 98.0107L1648.46 105.964ZM1652.83 101.467L1646.68 44.8113L1638.72 45.6745L1644.87 102.33L1652.83 101.467ZM1643.13 49.2195L1666.85 46.645L1665.99 38.6917L1642.27 41.2663L1643.13 49.2195Z" fill="white"/>
<defs>
<linearGradient id="paint0_linear_5_1391" x1="952.254" y1="-17.7185" x2="1048.32" y2="435.871" gradientUnits="userSpaceOnUse">
<stop stop-color="#8D1CFE"/>
<stop offset="1" stop-color="#0038ED"/>
</linearGradient>
</defs>
</svg>
