<svg width="1200" height="290" viewBox="0 0 1200 290" fill="none" xmlns="http://www.w3.org/2000/svg">
<g clip-path="url(#clip0_17_394)">
<rect width="1200" height="290" rx="10" fill="url(#paint0_linear_17_394)"/>
<circle cx="1120" cy="237" r="271" fill="#8114D5"/>
<circle cx="600" cy="415" r="270.5" stroke="white"/>
<circle cx="34.5" cy="79.5" r="113.5" fill="#650076" fill-opacity="0.3"/>
<g opacity="0.3" filter="url(#filter0_f_17_394)">
<path d="M964.282 -22.5242C965.798 -24.0399 968.007 -24.6319 970.077 -24.0771L1054.18 -1.54125C1056.25 -0.98645 1057.87 0.630834 1058.42 2.70139L1080.96 86.8063C1081.52 88.8768 1080.92 91.0861 1079.41 92.6018L1017.84 154.171C1016.32 155.687 1014.11 156.279 1012.04 155.724L927.938 133.188C925.868 132.633 924.25 131.016 923.696 128.945L901.16 44.8404C900.605 42.7699 901.197 40.5606 902.713 39.0449L964.282 -22.5242Z" fill="#6B3D0F"/>
</g>
<g opacity="0.4" filter="url(#filter1_f_17_394)">
<path d="M965.576 -17.6946C967.092 -19.2104 969.301 -19.8023 971.371 -19.2475L1056.44 3.54713C1058.51 4.10194 1060.13 5.71922 1060.68 7.78977L1083.48 92.8606C1084.03 94.9311 1083.44 97.1404 1081.93 98.6562L1019.65 160.932C1018.13 162.448 1015.93 163.04 1013.85 162.485L928.784 139.691C926.714 139.136 925.096 137.518 924.541 135.448L901.747 50.3771C901.192 48.3066 901.784 46.0973 903.3 44.5816L965.576 -17.6946Z" fill="#6B3D0F"/>
</g>
<path d="M962.211 -30.2518C963.727 -31.7676 965.936 -32.3595 968.007 -31.8047L1055.98 -8.23361C1058.05 -7.6788 1059.66 -6.06152 1060.22 -3.99097L1083.79 83.9776C1084.34 86.0482 1083.75 88.2574 1082.24 89.7732L1017.84 154.171C1016.32 155.686 1014.11 156.278 1012.04 155.724L924.075 132.152C922.004 131.598 920.387 129.98 919.832 127.91L896.261 39.9412C895.706 37.8707 896.298 35.6614 897.814 34.1457L962.211 -30.2518Z" fill="url(#paint1_linear_17_394)"/>
<g clip-path="url(#clip1_17_394)">
<path d="M1018.87 44.7907C1017.77 35.1046 1009.34 31.9983 998.747 31.2567L998.512 17.7987L990.32 17.9429L990.55 31.0463C988.396 31.0837 986.196 31.1648 984.009 31.2466L983.78 18.0562L975.593 18.199L975.825 31.6533C974.052 31.7206 972.311 31.7844 970.613 31.8148L970.611 31.7727L959.313 31.9658L959.468 40.7151C959.468 40.7151 965.515 40.4945 965.416 40.607C968.734 40.5499 969.848 42.4578 970.192 44.1144L970.46 59.4461C970.689 59.4431 970.987 59.4474 971.327 59.4884C971.054 59.4934 970.762 59.497 970.461 59.5051L970.834 80.9833C970.707 82.0299 970.122 83.7062 967.804 83.7504C967.911 83.8413 961.849 83.853 961.849 83.853L960.392 93.6649L971.053 93.4784C973.037 93.4465 974.99 93.4461 976.907 93.4241L977.148 107.035L985.331 106.894L985.095 93.426C987.343 93.4334 989.517 93.4132 991.641 93.3744L991.871 106.78L1000.06 106.635L999.828 93.0481C1013.59 92.0176 1023.17 88.3802 1024.14 75.4255C1024.92 64.9947 1019.94 60.4338 1012.09 58.6929C1016.8 56.1912 1019.69 51.878 1018.87 44.7907ZM1007.92 74.095C1008.1 84.2669 990.664 83.4141 985.112 83.5162L984.799 65.4817C990.352 65.3865 1007.73 63.4854 1007.92 74.095ZM1003.66 48.7174C1003.82 57.9715 989.279 57.1454 984.655 57.2263L984.37 40.8704C988.994 40.7895 1003.49 39.0658 1003.66 48.7174Z" fill="white"/>
</g>
<g opacity="0.3" filter="url(#filter2_f_17_394)">
<path d="M1107 114.732C1108.86 113.66 1111.14 113.66 1113 114.732L1170.22 147.768C1172.08 148.84 1173.22 150.821 1173.22 152.964V219.036C1173.22 221.18 1172.08 223.16 1170.22 224.232L1113 257.268C1111.14 258.34 1108.86 258.34 1107 257.268L1049.78 224.232C1047.92 223.16 1046.78 221.18 1046.78 219.036V152.964C1046.78 150.821 1047.92 148.84 1049.78 147.768L1107 114.732Z" fill="#6B3D0F"/>
</g>
<g opacity="0.4" filter="url(#filter3_f_17_394)">
<path d="M1107 119.732C1108.86 118.66 1111.14 118.66 1113 119.732L1171.09 153.268C1172.94 154.34 1174.09 156.321 1174.09 158.464V225.536C1174.09 227.68 1172.94 229.66 1171.09 230.732L1113 264.268C1111.14 265.34 1108.86 265.34 1107 264.268L1048.91 230.732C1047.06 229.66 1045.91 227.68 1045.91 225.536V158.464C1045.91 156.321 1047.06 154.34 1048.91 153.268L1107 119.732Z" fill="#6B3D0F"/>
</g>
<path d="M1107 106.732C1108.86 105.66 1111.14 105.66 1113 106.732L1173.68 141.768C1175.54 142.84 1176.68 144.821 1176.68 146.964V217.036C1176.68 219.18 1175.54 221.16 1173.68 222.232L1113 257.268C1111.14 258.34 1108.86 258.34 1107 257.268L1046.32 222.232C1044.46 221.16 1043.32 219.18 1043.32 217.036V146.964C1043.32 144.821 1044.46 142.84 1046.32 141.768L1107 106.732Z" fill="url(#paint2_linear_17_394)"/>
<path d="M1110 162.221L1095.98 176.24L1087.82 168.082L1110 145.906L1132.18 168.089L1124.03 176.246L1110 162.221Z" fill="white"/>
<path d="M1082.06 173.841L1073.91 182L1082.06 190.156L1090.22 181.998L1082.06 173.841Z" fill="white"/>
<path d="M1110 201.779L1095.98 187.761L1087.81 195.906L1110 218.094L1132.18 195.911L1132.19 195.907L1124.03 187.754L1110 201.779Z" fill="white"/>
<path d="M1137.94 173.846L1129.78 182.003L1137.94 190.16L1146.09 182.003L1137.94 173.846Z" fill="white"/>
<path d="M1118.28 181.994H1118.27L1118.28 181.998L1118.28 182.002L1110 190.279L1101.73 182.008L1101.72 181.996L1101.73 181.985L1110 173.716L1118.28 181.994Z" fill="white"/>
<g opacity="0.3" filter="url(#filter4_f_17_394)">
<path d="M962.689 166.047C964.759 165.493 966.968 166.085 968.484 167.6L994.698 193.814C996.214 195.33 996.806 197.539 996.251 199.61L986.656 235.418C986.101 237.489 984.484 239.106 982.413 239.661L946.605 249.256C944.534 249.811 942.325 249.219 940.809 247.703L914.595 221.489C913.08 219.973 912.488 217.764 913.043 215.694L922.637 179.885C923.192 177.814 924.81 176.197 926.88 175.642L962.689 166.047Z" fill="#451FAD"/>
</g>
<g opacity="0.4" filter="url(#filter5_f_17_394)">
<path d="M961.395 170.877C963.465 170.322 965.674 170.914 967.19 172.43L994.111 199.351C995.627 200.866 996.219 203.076 995.664 205.146L985.81 241.921C985.255 243.991 983.638 245.609 981.568 246.163L944.793 256.017C942.722 256.572 940.513 255.98 938.997 254.464L912.077 227.543C910.561 226.028 909.969 223.818 910.524 221.748L920.377 184.973C920.932 182.903 922.549 181.286 924.62 180.731L961.395 170.877Z" fill="#451FAD"/>
</g>
<path d="M964.759 158.32C966.83 157.765 969.039 158.357 970.555 159.873L999.597 188.915C1001.11 190.431 1001.7 192.64 1001.15 194.711L990.52 234.383C989.965 236.453 988.348 238.071 986.277 238.626L946.605 249.256C944.534 249.81 942.325 249.219 940.809 247.703L911.767 218.661C910.251 217.145 909.659 214.936 910.214 212.865L920.844 173.193C921.399 171.122 923.016 169.505 925.087 168.95L964.759 158.32Z" fill="url(#paint3_linear_17_394)"/>
<g clip-path="url(#clip2_17_394)">
<path d="M942.51 200.63L961.759 182.091L961.756 182.102L961.762 182.092L969.162 207.768L969.168 207.773L953.732 212.08L953.733 212.077L953.727 212.079L953.725 212.075L953.724 212.077L942.51 200.63Z" fill="white"/>
<path d="M950.129 225.498L950.126 225.507L941.832 203.159L953.048 214.602L953.047 214.606L953.051 214.603L968.494 210.303L950.129 225.508L950.129 225.498Z" fill="white"/>
</g>
</g>
<defs>
<filter id="filter0_f_17_394" x="894.955" y="-30.2817" width="192.21" height="192.21" filterUnits="userSpaceOnUse" color-interpolation-filters="sRGB">
<feFlood flood-opacity="0" result="BackgroundImageFix"/>
<feBlend mode="normal" in="SourceGraphic" in2="BackgroundImageFix" result="shape"/>
<feGaussianBlur stdDeviation="3" result="effect1_foregroundBlur_17_394"/>
</filter>
<filter id="filter1_f_17_394" x="886.542" y="-34.4521" width="212.142" height="212.142" filterUnits="userSpaceOnUse" color-interpolation-filters="sRGB">
<feFlood flood-opacity="0" result="BackgroundImageFix"/>
<feBlend mode="normal" in="SourceGraphic" in2="BackgroundImageFix" result="shape"/>
<feGaussianBlur stdDeviation="7.5" result="effect1_foregroundBlur_17_394"/>
</filter>
<filter id="filter2_f_17_394" x="1040.78" y="107.928" width="138.44" height="156.144" filterUnits="userSpaceOnUse" color-interpolation-filters="sRGB">
<feFlood flood-opacity="0" result="BackgroundImageFix"/>
<feBlend mode="normal" in="SourceGraphic" in2="BackgroundImageFix" result="shape"/>
<feGaussianBlur stdDeviation="3" result="effect1_foregroundBlur_17_394"/>
</filter>
<filter id="filter3_f_17_394" x="1030.91" y="103.928" width="158.172" height="176.144" filterUnits="userSpaceOnUse" color-interpolation-filters="sRGB">
<feFlood flood-opacity="0" result="BackgroundImageFix"/>
<feBlend mode="normal" in="SourceGraphic" in2="BackgroundImageFix" result="shape"/>
<feGaussianBlur stdDeviation="7.5" result="effect1_foregroundBlur_17_394"/>
</filter>
<filter id="filter4_f_17_394" x="906.838" y="159.843" width="95.6175" height="95.6174" filterUnits="userSpaceOnUse" color-interpolation-filters="sRGB">
<feFlood flood-opacity="0" result="BackgroundImageFix"/>
<feBlend mode="normal" in="SourceGraphic" in2="BackgroundImageFix" result="shape"/>
<feGaussianBlur stdDeviation="3" result="effect1_foregroundBlur_17_394"/>
</filter>
<filter id="filter5_f_17_394" x="895.319" y="155.672" width="115.549" height="115.549" filterUnits="userSpaceOnUse" color-interpolation-filters="sRGB">
<feFlood flood-opacity="0" result="BackgroundImageFix"/>
<feBlend mode="normal" in="SourceGraphic" in2="BackgroundImageFix" result="shape"/>
<feGaussianBlur stdDeviation="7.5" result="effect1_foregroundBlur_17_394"/>
</filter>
<linearGradient id="paint0_linear_17_394" x1="547.934" y1="-27.9259" x2="872.155" y2="530.948" gradientUnits="userSpaceOnUse">
<stop stop-color="#8D1CFE"/>
<stop offset="1" stop-color="#0038ED"/>
</linearGradient>
<linearGradient id="paint1_linear_17_394" x1="964.901" y1="-31.8047" x2="1015.15" y2="155.724" gradientUnits="userSpaceOnUse">
<stop stop-color="#F4BA45"/>
<stop offset="1" stop-color="#F19C3B"/>
</linearGradient>
<linearGradient id="paint2_linear_17_394" x1="1110" y1="105.928" x2="1110" y2="258.072" gradientUnits="userSpaceOnUse">
<stop stop-color="#F4BA45"/>
<stop offset="1" stop-color="#F19C3B"/>
</linearGradient>
<linearGradient id="paint3_linear_17_394" x1="967.865" y1="158.32" x2="943.499" y2="249.256" gradientUnits="userSpaceOnUse">
<stop stop-color="#9A7DE8"/>
<stop offset="1" stop-color="#7852E0"/>
</linearGradient>
<clipPath id="clip0_17_394">
<rect width="1200" height="290" rx="10" fill="white"/>
</clipPath>
<clipPath id="clip1_17_394">
<rect width="97.8735" height="97.8735" fill="white" transform="translate(929.935 27.2666) rotate(-15)"/>
</clipPath>
<clipPath id="clip2_17_394">
<rect width="47.9435" height="47.9435" fill="white" transform="translate(938.691 174.359) rotate(15)"/>
</clipPath>
</defs>
</svg>
